<?xml version="1.0" encoding="utf-8"?>
<!-- Generator: Adobe Illustrator 18.0.0, SVG Export Plug-In . SVG Version: 6.00 Build 0)  -->
<!DOCTYPE svg PUBLIC "-//W3C//DTD SVG 1.1//EN" "http://www.w3.org/Graphics/SVG/1.1/DTD/svg11.dtd">
<svg version="1.1" id="Layer_1" xmlns="http://www.w3.org/2000/svg" xmlns:xlink="http://www.w3.org/1999/xlink" x="0px" y="0px"
	 viewBox="0 0 400 400" enable-background="new 0 0 400 400" xml:space="preserve">
<g>
	<path fill-rule="evenodd" clip-rule="evenodd" fill="#FFFFFF" d="M140.6,163.5c16.1-2.6,15.7,26.5,13.5,42.3
		c-1.5,11.2-6.5,32.8-21.2,29.9c-7.9-1.6-10.2-15-10.2-26.3c-0.1-16.2,3.4-36.5,11.7-43.4C135.9,164.8,138.1,163.9,140.6,163.5z"/>
	<path fill-rule="evenodd" clip-rule="evenodd" fill="#FFFFFF" d="M234.4,163.5c13.9-2.3,15.2,17.7,14.6,30.7
		c-0.5,11.7-2.6,25.1-6.9,32.8c-2.3,4.1-7.6,10.4-15.3,8.4c-8.9-2.3-10.7-19.2-9.9-33.2c0.8-13.6,4.4-27.8,9.1-33.6
		C227.7,166.5,230.6,164.1,234.4,163.5z"/>
	<path fill-rule="evenodd" clip-rule="evenodd" fill="#FFFFFF" d="M343.9,165c-2.9,19.8-5.9,41.6-16.4,54c-2.1,2.4-6.1,6.5-10.2,6.2
		c-5.9-0.5-7.2-10-6.6-18.2c0.9-12.9,7.2-29,15.3-36.5C330.2,166.6,336.2,163.6,343.9,165z"/>
	<path fill-rule="evenodd" clip-rule="evenodd" fill="#FFFFFF" d="M167.9,274.5c-3-0.2-6.8,0.4-9.1-0.4
		C158.3,267.9,168.9,267.8,167.9,274.5z"/>
	<path fill-rule="evenodd" clip-rule="evenodd" fill="#FFFFFF" d="M251.9,270.1c3.6,3.4,3.7,17.8-4.7,14.6
		C243.6,281.2,243.3,266.8,251.9,270.1z"/>
	<path fill-rule="evenodd" clip-rule="evenodd" fill="#FFFFFF" d="M332.9,115c0.2,2.1,0.9,3.8,1.5,5.5c3.2-0.1,8.3-2.9,12.4-2.2
		c1.9,12.8-0.8,27.1-2.2,39.1c-17.5-1.6-32.8,4.7-43.1,15c-10.1,10.1-18.2,23.6-19.3,40.9c-1.1,16.6,6,31.8,22.3,29.9
		c16.7-1.9,27-19.1,33.6-31.4c1.1,7.9-3.6,24.2,1.8,31c15.8,1,27.4-5.2,38.7-9.9c-0.2-2.2-1.3-3.3-1.5-5.5
		c-4.2,0.8-8.3,3.7-12.4,3.3c-3.3-4.2-1.3-9.9-0.7-14.6c3.8-33.9,9.7-71,12-107.7c10.9,21.2,19.6,46.1,21.9,75.2
		c2.6,32.1-3,61-11.7,84.7c-17.2,46.6-48.8,82.2-89.1,105.1c-20.7,11.8-44.6,20.5-73,24.1c-29.8,3.8-61,0-86.1-8
		C89.5,374,53.9,342.9,29.6,303.7c24.5-8.4,37.4-26.6,41.6-54.4c4.1-26.8,6.4-57.3,9.5-85.4c5.1,0,10.2,0,15.3,0
		c0.6-2,1.1-4.3,1.1-6.9c-3.1-0.2-10.1,0.1-15.3,0c2.1-18.9,3.3-38.7,15.7-47.4c3.4,2.8,5,8.2,10.2,9.9c6,1.9,13.3-0.3,13.5-6.2
		c0.3-7.8-10.1-10.7-16.8-10.9c-16.1-0.7-28.1,6.9-36.1,16.4c-8.4,10-11.7,23.2-13.9,38.3c-4,0-8,0-12,0c-0.6,1.9-1,4.1-1.1,6.6
		c4.7,0.9,6.8,0.2,12,0.4c-3.8,30.3-6.7,66.1-11.3,98.2c-2.1,14.6-4.9,30.2-16.4,35c-11.9-21.5-21.1-46.2-24.1-76.3
		c-3.2-32,1.3-63,10.2-87.6c17.3-47.7,50.6-85.3,92.3-108c21.7-11.9,47.1-20.7,77-23.4c31.2-2.8,62.3,2.1,87.2,11.3
		c48.2,17.7,83.6,50.9,106.6,93.4c0.3,0.1,0.4,0.4,0.7,0.4C360.2,107,345.2,110.6,332.9,115z M124.5,161.3
		c-16.1,8.2-31.1,28.8-29.2,55.5c1.2,16.3,11.8,25.1,27.4,26.3c34.1,2.6,60.1-22,59.9-58c-0.2-22-15.5-30.9-38.7-28.8
		C135.6,156.9,129.6,158.7,124.5,161.3z M206.3,170.1c-9.9,9.6-19,28.6-16.8,49.3c3.1,29.1,44.8,28.9,65,13.9
		c14.1-10.5,23.8-30.4,21.9-52.2c-1.7-19.3-17.3-26.5-38.3-24.8C224.6,157.3,213.5,163,206.3,170.1z M290.2,289.4c2.1,0,4.1,0,6.2,0
		c-0.3-4.8-0.2-9.2,2.9-10.6c1.5,3.8,3.4,7,5.1,10.6c2.1,0,4.1,0,6.2,0c-2.1-5.4-5.2-9.9-7.3-15.3c2.1-3,4.7-5.5,6.6-8.8
		c-1.7-0.3-4,0.2-6.6,0c-2.3,2.6-4.7,7-6.9,8.4c0-6,0-11.9,0-17.9c-1.9,0-3.9,0-5.8,0C290.3,265.3,291,280.6,290.2,289.4z
		 M184.4,265c-1.1,0.4-1.5,0.2-3.3,0.4c0,1.6,0,3.2,0,4.7c1,0.2,2.9-0.5,3.3,0.4c-0.1,10.1-2.2,23,10.2,19.3
		c0.7-1.1,0.2-3.4,0.4-5.1c-1.2,0.2-3.3,0.8-4.4,0c-0.4-3.2-0.7-10.4,0-14.6c1.5,0,2.9,0,4.4,0c0.6-1.9-0.5-2.7,0.4-4.7
		c-1.7-0.2-4,0.4-5.1-0.4c0-2.6,0-5.1,0-7.7c-1.9,0-3.9,0-5.8,0C184.4,259.9,184.4,262.4,184.4,265z M141.7,266.4
		c-3.4-3.3-9-1.4-12.8,1.1c0.5-3.9-2.7-1.7-5.5-2.2c0,8,0,16.1,0,24.1c2.1,0,4.1,0,6.2,0c0-5.8,0-11.7,0-17.5
		c1.6-1.4,3.2-2.6,6.6-2.2c2.9,4.1,0.8,13.3,1.5,19.7c1.9,0,3.9,0,5.8,0C142.1,281.8,146.1,270.8,141.7,266.4z M154.4,269.7
		c-7.2,13.5,8.5,29.2,19,15c-1.7-0.6-2.8-1.8-4.4-2.6c-2.4,5-11.2,3-10.2-3.6c4.9,0,9.7,0,14.6,0C176.2,264.1,159,261.2,154.4,269.7
		z M253.7,289.4c7.6-2.8,8.8-19,1.5-23.4c-1.9-1.1-4.3-1.4-6.9-1.1C233.1,266.8,237.6,295.4,253.7,289.4z M280.7,264.6
		c-3,0.5-4.9,2.1-6.2,4.4c-0.2-1.2,0.5-3.4-0.4-4c-1,0.8-3.5,0.1-5.1,0.4c0,8,0,16.1,0,24.1c1.9,0,3.9,0,5.8,0
		c0.3-8.1-2.3-19.1,6.6-18.6C281,268.9,282.3,265.3,280.7,264.6z M219.8,265.3c-1.2-0.4-3.3,0.2-5.5,0c-1.5,4.5-2,10-3.6,14.2
		c-0.7-5-2.1-9.3-2.9-14.2c-1.9,0-3.9,0-5.8,0c2.1,8,4.2,16,6.2,24.1c1.8,0,3.6,0,5.5,0c1.2-4.9,2-10.1,3.6-14.6
		c0.7,5.2,2.2,9.7,3.3,14.6c1.8,0,3.6,0,5.5,0c1.9-8.1,4-16.2,6.2-24.1c-2.9,0.2-4.2-0.5-5.8,0c-1.3,4.5-1.6,10.1-3.6,13.9
		C222,274.3,220.7,270,219.8,265.3z"/>
</g>
</svg>
