<?xml version="1.0" encoding="utf-8"?>
<!-- Generator: Adobe Illustrator 17.1.0, SVG Export Plug-In . SVG Version: 6.00 Build 0)  -->
<!DOCTYPE svg PUBLIC "-//W3C//DTD SVG 1.1//EN" "http://www.w3.org/Graphics/SVG/1.1/DTD/svg11.dtd">
<svg version="1.1" id="Layer_1" xmlns="http://www.w3.org/2000/svg" xmlns:xlink="http://www.w3.org/1999/xlink" x="0px" y="0px"
	 viewBox="0 0 279.03 38.838" enable-background="new 0 0 279.03 38.838" xml:space="preserve">
<g>
	<path fill="#DE1F26" d="M0,38.339V1.997h10.733c1.847,0,3.502,0.188,4.967,0.562c1.464,0.375,2.708,0.949,3.732,1.723
		c1.023,0.773,1.81,1.759,2.358,2.958c0.549,1.198,0.824,2.621,0.824,4.268c0,0.932-0.129,1.81-0.387,2.633
		c-0.258,0.824-0.637,1.577-1.136,2.259s-1.103,1.277-1.81,1.785c-0.708,0.508-1.51,0.911-2.409,1.21
		c1.065,0.233,2.03,0.62,2.896,1.161c0.865,0.541,1.605,1.198,2.221,1.972c0.616,0.774,1.09,1.635,1.423,2.584
		c0.333,0.948,0.499,1.946,0.499,2.995c0,1.664-0.279,3.132-0.836,4.405c-0.558,1.272-1.348,2.342-2.371,3.207
		s-2.251,1.519-3.682,1.96c-1.432,0.44-3.012,0.661-4.743,0.661H0z M3.07,18.296h8.387c2.562-0.05,4.547-0.653,5.953-1.81
		c1.406-1.157,2.109-2.841,2.109-5.055c0-2.33-0.729-4.047-2.184-5.154c-1.457-1.106-3.657-1.66-6.602-1.66H3.07V18.296z
		 M3.07,20.867v14.876h9.21c1.331,0,2.525-0.175,3.582-0.524c1.056-0.35,1.955-0.849,2.696-1.497
		c0.74-0.649,1.306-1.444,1.697-2.384c0.391-0.94,0.586-2.001,0.586-3.183c0-1.015-0.167-1.968-0.499-2.858
		c-0.333-0.89-0.845-1.664-1.535-2.321c-0.691-0.657-1.556-1.173-2.596-1.547s-2.267-0.562-3.682-0.562H3.07z"/>
	<path fill="#DE1F26" d="M28.979,24.436c0-1.963,0.287-3.777,0.861-5.441c0.574-1.664,1.385-3.099,2.434-4.306
		c1.048-1.206,2.313-2.15,3.794-2.833c1.481-0.682,3.128-1.023,4.942-1.023c1.847,0,3.515,0.341,5.004,1.023
		c1.489,0.683,2.758,1.627,3.807,2.833c1.048,1.207,1.855,2.642,2.421,4.306c0.565,1.664,0.849,3.478,0.849,5.441v0.824
		c0,1.964-0.283,3.777-0.849,5.441c-0.566,1.664-1.373,3.1-2.421,4.306s-2.313,2.146-3.794,2.82
		c-1.481,0.674-3.137,1.011-4.967,1.011s-3.486-0.337-4.967-1.011s-2.75-1.614-3.806-2.82c-1.057-1.206-1.872-2.642-2.446-4.306
		c-0.574-1.664-0.861-3.478-0.861-5.441V24.436z M31.974,25.26c0,1.481,0.2,2.892,0.599,4.23c0.399,1.34,0.981,2.513,1.747,3.52
		c0.765,1.007,1.714,1.81,2.846,2.409c1.131,0.599,2.429,0.898,3.894,0.898s2.758-0.3,3.881-0.898
		c1.123-0.6,2.067-1.402,2.833-2.409c0.765-1.007,1.348-2.18,1.747-3.52c0.399-1.339,0.599-2.749,0.599-4.23v-0.824
		c0-1.447-0.2-2.841-0.599-4.18s-0.982-2.517-1.747-3.532c-0.766-1.015-1.718-1.826-2.858-2.434
		c-1.14-0.607-2.442-0.911-3.906-0.911c-1.448,0-2.733,0.304-3.856,0.911c-1.123,0.608-2.068,1.419-2.833,2.434
		c-0.766,1.015-1.348,2.193-1.747,3.532s-0.599,2.733-0.599,4.18V25.26z"/>
	<path fill="#DE1F26" d="M63.898,4.418v6.914h5.591v2.446h-5.591v17.997c0,0.948,0.095,1.71,0.287,2.284
		c0.191,0.573,0.45,1.023,0.774,1.348c0.325,0.324,0.699,0.541,1.123,0.648c0.424,0.108,0.87,0.162,1.335,0.162
		c0.449,0,0.882-0.028,1.298-0.087s0.791-0.112,1.124-0.162l0.125,2.446c-0.366,0.133-0.845,0.236-1.435,0.312
		c-0.591,0.075-1.177,0.112-1.76,0.112c-0.849,0-1.635-0.112-2.358-0.337c-0.724-0.225-1.344-0.611-1.86-1.16
		c-0.516-0.55-0.919-1.277-1.21-2.185c-0.292-0.906-0.437-2.034-0.437-3.382V13.778h-4.967v-2.446h4.967V4.418H63.898z"/>
	<path fill="#DE1F26" d="M80.322,4.418v6.914h5.591v2.446h-5.591v17.997c0,0.948,0.095,1.71,0.287,2.284
		c0.191,0.573,0.45,1.023,0.774,1.348c0.325,0.324,0.699,0.541,1.123,0.648c0.424,0.108,0.87,0.162,1.335,0.162
		c0.449,0,0.882-0.028,1.298-0.087s0.791-0.112,1.124-0.162l0.125,2.446c-0.366,0.133-0.845,0.236-1.435,0.312
		c-0.591,0.075-1.177,0.112-1.76,0.112c-0.849,0-1.635-0.112-2.358-0.337c-0.724-0.225-1.344-0.611-1.86-1.16
		c-0.516-0.55-0.919-1.277-1.21-2.185c-0.292-0.906-0.437-2.034-0.437-3.382V13.778H72.36v-2.446h4.967V4.418H80.322z"/>
	<path fill="#DE1F26" d="M95.448,38.339h-2.995V0h2.995V38.339z"/>
	<path fill="#DE1F26" d="M114.018,38.838c-1.764,0-3.386-0.328-4.867-0.985s-2.758-1.573-3.832-2.746s-1.909-2.566-2.508-4.181
		s-0.898-3.386-0.898-5.316v-1.073c0-2.08,0.312-3.965,0.936-5.654c0.624-1.688,1.468-3.128,2.533-4.318
		c1.065-1.19,2.292-2.109,3.682-2.758c1.389-0.649,2.858-0.974,4.406-0.974c1.713,0,3.236,0.308,4.567,0.924
		c1.331,0.616,2.45,1.473,3.357,2.571c0.907,1.098,1.593,2.405,2.059,3.918c0.466,1.515,0.699,3.17,0.699,4.967v1.822h-19.269v0.574
		c0,1.481,0.225,2.874,0.674,4.181s1.082,2.442,1.897,3.407c0.815,0.965,1.789,1.727,2.92,2.283
		c1.131,0.559,2.388,0.837,3.769,0.837c1.597,0,3.008-0.291,4.23-0.874c1.223-0.582,2.334-1.514,3.333-2.796l1.872,1.423
		c-0.449,0.649-0.97,1.265-1.56,1.848c-0.591,0.582-1.277,1.09-2.06,1.522s-1.664,0.773-2.646,1.023
		C116.331,38.713,115.232,38.838,114.018,38.838z M113.469,13.378c-1.132,0-2.18,0.217-3.145,0.649
		c-0.965,0.433-1.818,1.048-2.559,1.847c-0.741,0.799-1.348,1.76-1.822,2.883c-0.474,1.124-0.794,2.368-0.961,3.732h16.199v-0.325
		c-0.033-1.131-0.216-2.225-0.549-3.282c-0.333-1.057-0.82-1.993-1.46-2.808c-0.641-0.815-1.435-1.468-2.384-1.959
		C115.84,13.625,114.733,13.378,113.469,13.378z"/>
	<path fill="#DE1F26" d="M144.245,23.213h-10.558v15.126h-3.095V1.997h11.807c1.896,0,3.606,0.233,5.129,0.699
		s2.82,1.152,3.894,2.059c1.074,0.907,1.897,2.026,2.472,3.357c0.574,1.332,0.861,2.862,0.861,4.593c0,1.198-0.184,2.326-0.55,3.382
		s-0.882,2.009-1.547,2.858c-0.666,0.849-1.461,1.581-2.384,2.196c-0.924,0.616-1.943,1.09-3.058,1.423l9.085,15.451v0.324h-3.27
		L144.245,23.213z M133.687,20.592h9.41c1.415,0,2.659-0.216,3.732-0.649s1.967-1.011,2.683-1.735
		c0.716-0.724,1.252-1.564,1.61-2.521c0.357-0.957,0.536-1.951,0.536-2.983c0-1.248-0.199-2.371-0.599-3.37
		s-0.995-1.847-1.785-2.546s-1.76-1.235-2.907-1.61c-1.148-0.375-2.472-0.562-3.969-0.562h-8.711V20.592z"/>
	<path fill="#DE1F26" d="M160.769,24.436c0-1.963,0.287-3.777,0.861-5.441c0.574-1.664,1.386-3.099,2.434-4.306
		c1.049-1.206,2.312-2.15,3.794-2.833c1.481-0.682,3.128-1.023,4.942-1.023c1.847,0,3.515,0.341,5.005,1.023
		c1.488,0.683,2.758,1.627,3.806,2.833c1.049,1.207,1.855,2.642,2.422,4.306c0.565,1.664,0.849,3.478,0.849,5.441v0.824
		c0,1.964-0.283,3.777-0.849,5.441c-0.566,1.664-1.373,3.1-2.422,4.306c-1.048,1.206-2.312,2.146-3.794,2.82
		c-1.48,0.674-3.137,1.011-4.967,1.011c-1.831,0-3.486-0.337-4.967-1.011c-1.481-0.674-2.75-1.614-3.807-2.82
		s-1.872-2.642-2.446-4.306s-0.861-3.478-0.861-5.441V24.436z M163.764,25.26c0,1.481,0.2,2.892,0.6,4.23
		c0.399,1.34,0.981,2.513,1.747,3.52s1.714,1.81,2.846,2.409c1.131,0.599,2.429,0.898,3.894,0.898c1.464,0,2.758-0.3,3.882-0.898
		c1.123-0.6,2.067-1.402,2.833-2.409c0.765-1.007,1.348-2.18,1.747-3.52c0.399-1.339,0.599-2.749,0.599-4.23v-0.824
		c0-1.447-0.199-2.841-0.599-4.18s-0.982-2.517-1.747-3.532c-0.766-1.015-1.719-1.826-2.858-2.434
		c-1.14-0.607-2.442-0.911-3.906-0.911c-1.448,0-2.733,0.304-3.856,0.911c-1.123,0.608-2.067,1.419-2.833,2.434
		c-0.766,1.015-1.348,2.193-1.747,3.532s-0.6,2.733-0.6,4.18V25.26z"/>
	<path fill="#DE1F26" d="M201.03,36.317c0.948,0,1.859-0.138,2.733-0.412c0.873-0.274,1.651-0.678,2.334-1.211
		c0.682-0.532,1.243-1.189,1.685-1.972c0.44-0.782,0.694-1.688,0.761-2.721h2.871c-0.067,1.281-0.388,2.463-0.961,3.545
		c-0.574,1.081-1.332,2.014-2.271,2.795c-0.94,0.782-2.026,1.395-3.258,1.835s-2.529,0.661-3.894,0.661
		c-1.897,0-3.562-0.346-4.992-1.036c-1.432-0.689-2.633-1.643-3.606-2.857s-1.706-2.642-2.196-4.28
		c-0.491-1.64-0.736-3.407-0.736-5.305v-1.049c0-1.896,0.245-3.664,0.736-5.303c0.49-1.639,1.219-3.062,2.184-4.269
		c0.965-1.206,2.167-2.159,3.606-2.858c1.439-0.699,3.1-1.048,4.979-1.048c1.448,0,2.792,0.225,4.031,0.674
		c1.239,0.45,2.321,1.09,3.245,1.922s1.66,1.843,2.209,3.033c0.549,1.189,0.856,2.517,0.924,3.981h-2.871
		c-0.066-1.098-0.304-2.08-0.711-2.945c-0.408-0.865-0.948-1.605-1.622-2.222c-0.675-0.615-1.457-1.085-2.347-1.41
		c-0.891-0.324-1.843-0.487-2.858-0.487c-1.547,0-2.857,0.3-3.931,0.899c-1.073,0.599-1.951,1.406-2.634,2.421
		c-0.683,1.015-1.177,2.18-1.484,3.495c-0.309,1.314-0.462,2.688-0.462,4.118v1.049c0,1.448,0.153,2.833,0.462,4.156
		c0.308,1.322,0.798,2.487,1.473,3.494c0.674,1.007,1.556,1.81,2.646,2.409C198.164,36.018,199.482,36.317,201.03,36.317z"/>
	<path fill="#DE1F26" d="M223.794,24.735l-3.42,3.295v10.309h-2.995V0h2.995v24.536l2.821-3.045l10.333-10.159h3.77l-11.457,11.382
		l12.455,15.625h-3.569L223.794,24.735z"/>
	<path fill="#DE1F26" d="M252.374,38.838c-1.765,0-3.387-0.328-4.867-0.985c-1.481-0.657-2.759-1.573-3.832-2.746
		s-1.909-2.566-2.509-4.181c-0.599-1.614-0.898-3.386-0.898-5.316v-1.073c0-2.08,0.312-3.965,0.937-5.654
		c0.624-1.688,1.468-3.128,2.533-4.318c1.064-1.19,2.292-2.109,3.682-2.758s2.858-0.974,4.405-0.974
		c1.714,0,3.236,0.308,4.568,0.924c1.331,0.616,2.449,1.473,3.356,2.571s1.594,2.405,2.06,3.918c0.466,1.515,0.699,3.17,0.699,4.967
		v1.822h-19.27v0.574c0,1.481,0.225,2.874,0.674,4.181s1.081,2.442,1.897,3.407c0.814,0.965,1.788,1.727,2.92,2.283
		c1.132,0.559,2.388,0.837,3.769,0.837c1.598,0,3.008-0.291,4.231-0.874c1.223-0.582,2.334-1.514,3.332-2.796l1.872,1.423
		c-0.449,0.649-0.97,1.265-1.561,1.848c-0.591,0.582-1.277,1.09-2.059,1.522c-0.782,0.433-1.664,0.773-2.646,1.023
		C254.687,38.713,253.588,38.838,252.374,38.838z M251.824,13.378c-1.132,0-2.18,0.217-3.145,0.649
		c-0.966,0.433-1.818,1.048-2.559,1.847s-1.348,1.76-1.822,2.883c-0.474,1.124-0.795,2.368-0.961,3.732h16.199v-0.325
		c-0.033-1.131-0.217-2.225-0.549-3.282c-0.333-1.057-0.82-1.993-1.46-2.808c-0.642-0.815-1.436-1.468-2.384-1.959
		C254.195,13.625,253.089,13.378,251.824,13.378z"/>
	<path fill="#DE1F26" d="M272.965,4.418v6.914h5.592v2.446h-5.592v17.997c0,0.948,0.096,1.71,0.287,2.284
		c0.191,0.573,0.449,1.023,0.774,1.348c0.324,0.324,0.698,0.541,1.123,0.648c0.424,0.108,0.869,0.162,1.335,0.162
		c0.449,0,0.882-0.028,1.298-0.087s0.79-0.112,1.123-0.162l0.125,2.446c-0.366,0.133-0.845,0.236-1.435,0.312
		c-0.591,0.075-1.178,0.112-1.76,0.112c-0.849,0-1.636-0.112-2.359-0.337s-1.344-0.611-1.859-1.16
		c-0.516-0.55-0.92-1.277-1.211-2.185c-0.291-0.906-0.437-2.034-0.437-3.382V13.778h-4.967v-2.446h4.967V4.418H272.965z"/>
</g>
</svg>
