<?xml version="1.0" encoding="utf-8"?>
<!-- Generator: Adobe Illustrator 18.0.0, SVG Export Plug-In . SVG Version: 6.00 Build 0)  -->
<!DOCTYPE svg PUBLIC "-//W3C//DTD SVG 1.1//EN" "http://www.w3.org/Graphics/SVG/1.1/DTD/svg11.dtd">
<svg version="1.1" id="Layer_1" xmlns="http://www.w3.org/2000/svg" xmlns:xlink="http://www.w3.org/1999/xlink" x="0px" y="0px"
	 viewBox="0 0 120 120" enable-background="new 0 0 120 120" xml:space="preserve">
<g opacity="0.68">
	<g>
		<path fill="#FFFFFF" d="M-155.9-14.1c-40.9,0-74.1,33.2-74.1,74.1s33.2,74.1,74.1,74.1S-81.8,101-81.8,60S-115-14.1-155.9-14.1z
			 M-136.7,35.1h-11.1c-1.3,0-2.8,1.7-2.8,4v8h13.9v11.4h-13.9V93h-13.1V58.6h-11.9V47.2h11.9v-6.7c0-9.7,6.7-17.5,15.9-17.5h11.1
			V35.1z"/>
	</g>
</g>
<g opacity="0.68">
	<g>
		<path fill="#FFFFFF" d="M60,0C26.9,0,0,26.9,0,60s26.9,60,60,60s60-26.9,60-60S93.1,0,60,0z M85.4,49.4c0,0.5,0,1.1,0,1.6
			c0,16.3-12.4,35-35,35c-6.9,0-13.4-2-18.9-5.5c1,0.1,1.9,0.2,2.9,0.2c5.8,0,11.1-2,15.3-5.3c-5.4-0.1-9.9-3.7-11.5-8.5
			c0.8,0.1,1.5,0.2,2.3,0.2c1.1,0,2.2-0.2,3.2-0.4c-5.6-1.1-9.9-6.1-9.9-12.1c0-0.1,0-0.1,0-0.2c1.7,0.9,3.6,1.5,5.6,1.5
			c-3.3-2.2-5.5-6-5.5-10.2c0-2.3,0.6-4.4,1.7-6.2c6.1,7.4,15.1,12.3,25.4,12.9c-0.2-0.9-0.3-1.8-0.3-2.8c0-6.8,5.5-12.3,12.3-12.3
			c3.5,0,6.7,1.5,9,3.9c2.8-0.6,5.4-1.6,7.8-3C88.9,41,87,43.4,84.4,45c2.5-0.3,4.9-1,7.1-1.9C89.9,45.5,87.8,47.7,85.4,49.4z"/>
	</g>
</g>
<g opacity="0.68">
	<g>
		<path fill="#FFFFFF" d="M270.9,65.6c-0.4,0-0.8,0-1.1,0c-3.2,0.2-6.2,1.4-8.3,3.4c-2.1,1.9-3.2,4.3-3.1,6.8
			c0.3,5.1,5.8,8.1,12.5,7.7c6.6-0.5,11-4.3,10.7-9.4C281.3,69.2,277.1,65.6,270.9,65.6z M277.3,37.6c-1.7-6.1-4.6-8-9-8
			c-0.5,0-0.9,0.1-1.4,0.2c-1.9,0.5-3.4,2.1-4.2,4.5c-0.9,2.4-0.9,4.9-0.2,7.7c1.3,5.1,4.9,8.7,8.6,8.7c0.5,0,0.9-0.1,1.4-0.2
			C276.4,49.5,278.9,43.4,277.3,37.6z M276.9-14.1c-40.9,0-74.1,33.2-74.1,74.1s33.2,74.1,74.1,74.1S351,101,351,60
			S317.8-14.1,276.9-14.1z M279.8,87.1c-4.4,2.1-9.1,2.3-10.9,2.3c-0.3,0-0.5,0-0.6,0c0,0-0.1,0-0.4,0c-2.8,0-16.9-0.7-16.9-13.5
			c0-12.6,15.4-13.6,20.1-13.6l0.1,0c-2.7-3.6-2.2-7.3-2.2-7.3c-0.2,0-0.6,0-1,0c-1.8,0-5.2-0.3-8.1-2.2c-3.6-2.3-5.4-6.3-5.4-11.7
			c0-15.4,16.8-16,17-16h16.8v0.4c0,1.9-3.4,2.2-5.7,2.6c-0.8,0.1-2.3,0.3-2.8,0.5c4.3,2.3,4.9,5.8,4.9,11.2c0,6.1-2.4,9.3-4.9,11.5
			c-1.6,1.4-2.8,2.5-2.8,4c0,1.4,1.7,2.9,3.6,4.6c3.2,2.8,7.6,6.6,7.6,13.1C288.3,79.6,285.4,84.3,279.8,87.1z M316.5,57.2h-11v11
			h-6.9v-11h-11v-6.9h11v-11h6.9v11h11V57.2z"/>
	</g>
</g>
</svg>
