<?xml version="1.0" encoding="utf-8"?>
<!-- Generator: Adobe Illustrator 18.0.0, SVG Export Plug-In . SVG Version: 6.00 Build 0)  -->
<!DOCTYPE svg PUBLIC "-//W3C//DTD SVG 1.1//EN" "http://www.w3.org/Graphics/SVG/1.1/DTD/svg11.dtd">
<svg version="1.1" id="Layer_1" xmlns="http://www.w3.org/2000/svg" xmlns:xlink="http://www.w3.org/1999/xlink" x="0px" y="0px"
	 viewBox="0 0 26 76" enable-background="new 0 0 26 76" xml:space="preserve">
<g>
	<path fill="none" stroke="#808080" stroke-miterlimit="10" d="M20.4,45.6c0,0,5-16.1,5-18.4c0-6.8-5.5-11.9-12.2-11.9
		c-6.8,0-12.2,5-12.2,11.7c0,2.1,4.5,18.6,4.5,18.6H20.4z"/>
	<rect x="6" y="51.2" fill="none" stroke="#808080" stroke-miterlimit="10" width="14.3" height="1.5"/>
	<rect x="6" y="47.7" fill="none" stroke="#808080" stroke-miterlimit="10" width="14.3" height="1.6"/>
	<rect x="6" y="54.8" fill="none" stroke="#808080" stroke-miterlimit="10" width="14.3" height="1.6"/>
	<polygon fill="none" stroke="#808080" stroke-miterlimit="10" points="17.3,59.4 9,59.4 8.3,58.4 18,58.4 	"/>
	<polyline fill="none" stroke="#808080" stroke-miterlimit="10" points="10.5,44.9 7.2,30.1 9.7,31.1 13.1,29.7 16.5,31.1 19.1,30 
		15.8,44.8 	"/>
</g>
<rect x="0" y="0" fill="none" width="26" height="76"/>
</svg>
