<?xml version="1.0" encoding="utf-8"?>
<!-- Generator: Adobe Illustrator 18.0.0, SVG Export Plug-In . SVG Version: 6.00 Build 0)  -->
<!DOCTYPE svg PUBLIC "-//W3C//DTD SVG 1.1//EN" "http://www.w3.org/Graphics/SVG/1.1/DTD/svg11.dtd">
<svg version="1.1" id="Layer_1" xmlns="http://www.w3.org/2000/svg" xmlns:xlink="http://www.w3.org/1999/xlink" x="0px" y="0px"
	 viewBox="0 0 24 24" enable-background="new 0 0 24 24" xml:space="preserve">
<g>
	<path fill="none" stroke="#FFFFFF" stroke-width="0.9121" stroke-miterlimit="10" d="M8.9,18.8L7.8,20c-1,1-2.6,1-3.6,0
		c-0.5-0.5-0.7-1.1-0.7-1.8s0.3-1.3,0.7-1.8l4.3-4.2c0.9-0.9,2.5-2.2,3.8-1c0.6,0.6,1.5,0.5,2,0c0.6-0.6,0.5-1.5,0-2
		c-2.1-2-5.1-1.7-7.8,1l-4.3,4.2c-1,1-1.6,2.4-1.6,3.8c0,1.4,0.6,2.8,1.6,3.8c1.1,1,2.4,1.6,3.8,1.6c1.4,0,2.8-0.5,3.8-1.6l1.2-1.2
		c0.6-0.6,0.6-1.4,0-2C10.4,18.3,9.5,18.3,8.9,18.8z M21.9,2.4c-2.2-2.2-5.3-2.3-7.4-0.3l-1.4,1.4c-0.6,0.6-0.6,1.4,0,2
		c0.6,0.6,1.5,0.6,2,0l1.4-1.4c1.1-1.1,2.4-0.6,3.4,0.3c0.5,0.5,0.7,1.1,0.7,1.8c0,0.7-0.3,1.3-0.7,1.8l-4.5,4.5
		c-2.1,2.1-3.1,1.1-3.5,0.7c-0.6-0.6-1.5-0.5-2,0c-0.6,0.6-0.5,1.5,0,2c1,0.9,2,1.4,3.2,1.4c1.4,0,2.9-0.7,4.3-2.1l4.5-4.5
		c1-1,1.6-2.4,1.6-3.8C23.4,4.8,22.9,3.4,21.9,2.4z"/>
</g>
</svg>
