<?xml version="1.0" encoding="utf-8"?>
<!-- Generator: Adobe Illustrator 18.0.0, SVG Export Plug-In . SVG Version: 6.00 Build 0)  -->
<!DOCTYPE svg PUBLIC "-//W3C//DTD SVG 1.1//EN" "http://www.w3.org/Graphics/SVG/1.1/DTD/svg11.dtd">
<svg version="1.1" id="Layer_1" xmlns="http://www.w3.org/2000/svg" xmlns:xlink="http://www.w3.org/1999/xlink" x="0px" y="0px"
	 viewBox="0 0 26 76" enable-background="new 0 0 26 76" xml:space="preserve">
<rect x="0" y="0" fill="none" width="26" height="76"/>
<g>
	<path fill="none" stroke="#808080" stroke-miterlimit="10" d="M13.5,6.2c-0.6,0-1.2,0-1.8,0.1l6.1,5.6L16,19.5l-7.3,2.3l-7-6.4
		c-0.2,1-1,2-1,3c0,4.8,2.3,8.9,6.2,10.9v37.1c0,1.2,2.1,4.3,3.3,4.3h6.4c1.2,0,2-3,2-4.3V29.4c2.9-2,6.8-6.1,6.8-10.9
		C25.6,11.7,20.2,6.2,13.5,6.2z"/>
	<circle fill="none" stroke="#808080" stroke-miterlimit="10" cx="13.3" cy="63" r="2"/>
	<rect x="11.9" y="30.4" fill="none" stroke="#808080" stroke-miterlimit="10" width="2.9" height="28.5"/>
</g>
</svg>
